<svg xmlns="http://www.w3.org/2000/svg" viewBox="0 0 150.33 144.77"><defs><style>.cls-1{fill:#339af0;}.cls-2{fill:#2a272d;}.cls-3{fill:#413e44;}.cls-4{fill:#f4f3e3;}.cls-5{fill:#196ba3;}</style></defs><title>ahmad-logo</title><g id="Layer_2" data-name="Layer 2"><g id="Layer_1-2" data-name="Layer 1"><path class="cls-1" d="M36.76,114.43h93.57a66.82,66.82,0,1,0-93.57,0Z"/><path class="cls-2" d="M49.77,67.29s-.57-8.1-13.21,2-34.8-6-34.8-6L0,78.74S4.09,86.35,17.62,85,41.73,66.92,47.55,72.67Z"/><path class="cls-2" d="M42.58,66.32s-6-5.46-8.18,10.57S5.08,96.57,5.08,96.57L14.49,109s8.22,2.67,17.07-7.65,4.95-29.72,13.13-29.58Z"/><path class="cls-2" d="M130.53,82.66s.11,12.4-7.27,20.68-25,18.77-39.07,18.77c-12.79,0-32.12-11-39.5-19.24s-5.43-20.21-5.43-20.21a50,50,0,0,1,0-39.31h0c.36-.84.74-1.68,1.16-2.52C51.39,18.59,84.39,18.49,84.39,18.49s32.35.1,43.29,22.34c.41.84.8,1.68,1.16,2.51h0A54.07,54.07,0,0,1,130.53,82.66Z"/><path class="cls-3" d="M128.84,43.35h0S112.71,21.82,83.55,21.82A56.45,56.45,0,0,0,39.29,43.35c.36-.84.74-1.68,1.16-2.52C51.39,18.59,84.39,18.49,84.39,18.49s32.35.1,43.29,22.34c.41.84.8,1.68,1.16,2.51Z"/><path class="cls-4" d="M122.16,67.29,117.8,90.85s-18.32,5.3-33.58,5.3-33.58-5.3-33.58-5.3L46.28,67.29l.55-.28a83.92,83.92,0,0,1,74.78,0Z"/><path class="cls-1" d="M125.09,53.11l-1.83,9.11-.64,3.2-1.39,7c0-11.72-74-11.72-74,0l-1.83-8.51-.7-3.26-1.4-6.52s16.28-12,40.9-12S125.09,53.11,125.09,53.11Z"/><path class="cls-5" d="M73.34,52.34S55.87,56.26,45.39,63.86l-.7-3.26A50.14,50.14,0,0,1,73.34,52.34Z"/><path class="cls-5" d="M123.26,62.22l-.64,3.2c-10.54-6.5-25.44-9.85-25.44-9.85A51.14,51.14,0,0,1,123.26,62.22Z"/><path class="cls-2" d="M137.54,118.05a67.91,67.91,0,0,1-106.95,1.32c11.83-8.7,42.15-9.61,42.15-9.61l12.34,2,12.34-2S124.6,110.58,137.54,118.05Z"/><path class="cls-2" d="M62,88.82l-8.5-9.26L62,70.3h6.81l-8.55,9.26,8.55,9.26Z"/><path class="cls-2" d="M106.8,88.82l8.5-9.26-8.5-9.26H100l8.54,9.26L100,88.82Z"/><path class="cls-2" d="M90.17,65.65l-6.43,28H78.58l6.45-28Z"/></g></g></svg>